<svg width="128" height="109" viewBox="0 0 128 109" fill="none" xmlns="http://www.w3.org/2000/svg">
<path d="M119.419 32.7516C119.419 35.6771 117.047 38.0486 114.122 38.0486C111.196 38.0486 108.825 35.6771 108.825 32.7516C108.825 29.8261 111.196 27.4546 114.122 27.4546C117.047 27.4546 119.419 29.8261 119.419 32.7516Z" fill="#FEBD1A"/>
<circle cx="125.233" cy="55.4862" r="2.64851" fill="black"/>
<path d="M114.883 84.713C114.883 86.1757 113.697 87.3615 112.234 87.3615C110.771 87.3615 109.586 86.1757 109.586 84.713C109.586 83.2502 110.771 82.0645 112.234 82.0645C113.697 82.0645 114.883 83.2502 114.883 84.713Z" fill="black"/>
<circle cx="61.7828" cy="105.79" r="2.64851" fill="black"/>
<circle cx="10.8306" cy="84.8388" r="2.64851" fill="black"/>
<circle cx="15.9657" cy="20.0291" r="2.64851" fill="black"/>
<circle cx="59.9176" cy="3.61775" r="2.64851" fill="black"/>
<circle cx="86.7542" cy="8.91487" r="2.64851" fill="black"/>
<path d="M9.94703 50.4081C9.94703 52.846 7.97073 54.8223 5.53284 54.8223C3.09495 54.8223 1.11865 52.846 1.11865 50.4081C1.11865 47.9702 3.09495 45.9939 5.53284 45.9939C7.97073 45.9939 9.94703 47.9702 9.94703 50.4081Z" fill="#4B4B4B"/>
<path d="M45.6461 61.699V55.9853C45.6479 53.3021 47.8238 51.1273 50.5077 51.1235C53.1914 51.1273 55.3659 53.302 55.3693 55.9858V61.699C55.3693 64.3788 53.1892 66.5606 50.5077 66.5606C47.8262 66.5606 45.6461 64.3788 45.6461 61.699Z" fill="black" stroke="white"/>
<path d="M63.6267 26.408H23.1963C22.7272 26.408 22.3467 26.7885 22.3467 27.2576V81.1447C22.3467 81.6138 22.7272 81.9943 23.1963 81.9962C23.3715 81.9962 23.5411 81.9435 23.6842 81.8417L32.1298 75.9583L43.0055 81.8907C43.2599 82.0283 43.5651 82.0283 43.8194 81.8907L54.6951 75.9583L63.1426 81.8417C63.5269 82.1111 64.0581 82.0151 64.3256 81.6308C64.4255 81.4876 64.4782 81.318 64.4782 81.1447V27.2595C64.4782 26.7904 64.0977 26.4098 63.6286 26.4098L63.6267 26.408ZM34.6372 57.9916C37.6063 57.9916 40.0214 60.4067 40.0214 63.3757C40.0214 66.0528 38.0509 68.2626 35.4869 68.6752V71.0187C35.4869 71.4878 35.1063 71.8684 34.6372 71.8684C34.1682 71.8684 33.7876 71.4878 33.7876 71.0187V68.6752C31.2236 68.2645 29.2531 66.0547 29.2531 63.3757C29.2531 62.9067 29.6336 62.5261 30.1027 62.5261C30.5718 62.5261 30.9523 62.9067 30.9523 63.3757C30.9523 65.4066 32.6045 67.0607 34.6372 67.0607C36.67 67.0607 38.3222 65.4085 38.3222 63.3757C38.3222 61.343 36.67 59.6908 34.6372 59.6908C31.6663 59.6908 29.2531 57.2757 29.2531 54.3067C29.2531 51.6277 31.2236 49.4179 33.7876 49.0072V46.6618C33.7876 46.1927 34.1682 45.8121 34.6372 45.8121C35.1063 45.8121 35.4869 46.1927 35.4869 46.6618V49.0072C38.0509 49.4179 40.0214 51.6277 40.0214 54.3067C40.0214 54.7757 39.6409 55.1563 39.1718 55.1563C38.7027 55.1563 38.3222 54.7757 38.3222 54.3067C38.3222 52.2758 36.67 50.6217 34.6372 50.6217C32.6045 50.6217 30.9523 52.2739 30.9523 54.3067C30.9523 56.3394 32.6045 57.9916 34.6372 57.9916ZM57.57 61.6991C57.57 65.5931 54.4013 68.7618 50.5072 68.7618C46.6132 68.7618 43.4445 65.5931 43.4445 61.6991V55.9852C43.4445 52.0912 46.6113 48.9225 50.5072 48.9225C54.4031 48.9225 57.57 52.0912 57.57 55.9852V61.6991ZM56.7203 43.0334H30.1027C29.6336 43.0334 29.2531 42.6528 29.2531 42.1837C29.2531 41.7147 29.6336 41.3341 30.1027 41.3341H56.7203C57.1894 41.3341 57.57 41.7147 57.57 42.1837C57.57 42.6528 57.1894 43.0334 56.7203 43.0334ZM56.7203 37.035H30.1027C29.6336 37.035 29.2531 36.6545 29.2531 36.1854C29.2531 35.7163 29.6336 35.3358 30.1027 35.3358H56.7203C57.1894 35.3358 57.57 35.7163 57.57 36.1854C57.57 36.6545 57.1894 37.035 56.7203 37.035Z" fill="black"/>
<path d="M103.335 52.8843H102.016V51.5656C102.016 50.8365 101.426 50.2468 100.697 50.2468C99.9681 50.2468 99.3784 50.8365 99.3784 51.5656V52.8843H98.0597C97.3306 52.8843 96.741 53.4739 96.741 54.203C96.741 54.9321 97.3306 55.5217 98.0597 55.5217H99.3784V56.8405C99.3784 57.5695 99.9681 58.1592 100.697 58.1592C101.426 58.1592 102.016 57.5695 102.016 56.8405V55.5217H103.335C104.064 55.5217 104.653 54.9321 104.653 54.203C104.653 53.4739 104.064 52.8843 103.335 52.8843Z" fill="#FDBD1C"/>
<path d="M97.9668 47.6038C98.6951 47.6038 99.2855 47.0134 99.2855 46.285C99.2855 45.5567 98.6951 44.9663 97.9668 44.9663C97.2385 44.9663 96.6481 45.5567 96.6481 46.285C96.6481 47.0134 97.2385 47.6038 97.9668 47.6038Z" fill="#FDBD1C"/>
<path d="M92.6881 55.5217C93.4164 55.5217 94.0068 54.9313 94.0068 54.203C94.0068 53.4747 93.4164 52.8843 92.6881 52.8843C91.9598 52.8843 91.3694 53.4747 91.3694 54.203C91.3694 54.9313 91.9598 55.5217 92.6881 55.5217Z" fill="#FDBD1C"/>
<path d="M81.2002 69.1047C81.7164 68.5885 82.551 68.5885 83.0653 69.1047L83.4515 69.4909V58.1611H80.8121V69.4909L81.1983 69.1047H81.2002Z" fill="#FDBD1C"/>
<path d="M95.3275 58.1611H86.0907V72.6766C86.0907 73.2097 85.7705 73.692 85.2769 73.8954C84.7833 74.1008 84.2162 73.9878 83.8395 73.6091L82.1326 71.9023L80.4258 73.6091C80.0491 73.9878 79.4801 74.1008 78.9884 73.8954C78.4948 73.692 78.1727 73.2097 78.1746 72.6766V58.1611H77.4342L67.6172 63.8279V80.6813C67.6172 81.4103 68.2069 82 68.9359 82H95.3275C96.0566 82 96.6462 81.4103 96.6462 80.6813V59.4798C96.6462 58.7508 96.0566 58.1611 95.3275 58.1611ZM92.2266 45.0473L89.5872 40.4769C89.412 40.1736 89.1238 39.9532 88.7866 39.8628C88.4494 39.7742 88.0895 39.8213 87.7862 39.9946L83.7264 42.3382C83.7302 41.417 83.5117 40.4185 83.0388 39.6009C82.3342 38.3801 81.1964 37.506 79.8343 37.1405C78.4741 36.7788 77.0499 36.9635 75.8291 37.668C74.1374 38.6458 73.1257 40.4675 73.1917 42.4211L73.2011 42.6999C73.2011 42.7093 73.2011 42.7188 73.2011 42.7301L73.3292 46.6279L70.0757 44.6008C70.0757 44.6008 70.0719 44.5989 70.07 44.597L69.8327 44.4482C68.1729 43.4158 66.0931 43.3781 64.3976 44.3559C63.1768 45.0605 62.3027 46.1983 61.9372 47.5604C61.5718 48.9224 61.7602 50.3448 62.4647 51.5674C62.947 52.4001 63.6252 53.0482 64.4033 53.4947L60.2681 55.8307C59.637 56.1962 59.4203 57.0025 59.7858 57.6336L62.5118 62.2058C62.8754 62.8369 63.6836 63.0536 64.3147 62.6881L91.7405 46.852C92.3717 46.4885 92.5883 45.6803 92.2228 45.0492L92.2266 45.0473ZM68.3576 51.2095C67.0954 51.9348 65.479 51.5034 64.7537 50.2431C64.0265 48.9827 64.4598 47.3645 65.7201 46.6373C66.566 46.1456 67.6097 46.1663 68.4386 46.6844L72.1687 49.0091L68.3576 51.2095ZM81.0155 43.0089C80.8346 43.689 80.3976 44.2579 79.7872 44.6102L75.9761 46.8106L75.8272 42.3288C75.7933 41.3529 76.302 40.4392 77.146 39.9532C77.7545 39.599 78.4647 39.5067 79.1486 39.6895C79.8286 39.8722 80.3995 40.3093 80.7499 40.9196C81.1022 41.53 81.1963 42.3288 81.0136 43.0108L81.0155 43.0089Z" fill="#FDBD1C"/>
</svg>
