<svg width="128" height="108" viewBox="0 0 128 108" fill="none" xmlns="http://www.w3.org/2000/svg">
<path d="M119.419 32.2824C119.419 35.2078 117.047 37.5794 114.122 37.5794C111.197 37.5794 108.825 35.2078 108.825 32.2824C108.825 29.3569 111.197 26.9854 114.122 26.9854C117.047 26.9854 119.419 29.3569 119.419 32.2824Z" fill="#FEBD1A"/>
<circle cx="125.233" cy="55.0169" r="2.64851" fill="black"/>
<path d="M114.883 84.2437C114.883 85.7065 113.697 86.8922 112.234 86.8922C110.771 86.8922 109.586 85.7065 109.586 84.2437C109.586 82.781 110.771 81.5952 112.234 81.5952C113.697 81.5952 114.883 82.781 114.883 84.2437Z" fill="black"/>
<circle cx="61.7828" cy="105.321" r="2.64851" fill="black"/>
<circle cx="10.8306" cy="84.3697" r="2.64851" fill="black"/>
<circle cx="15.9657" cy="19.5599" r="2.64851" fill="black"/>
<circle cx="59.9176" cy="3.14851" r="2.64851" fill="black"/>
<circle cx="86.7542" cy="8.44563" r="2.64851" fill="black"/>
<path d="M9.94703 49.9388C9.94703 52.3767 7.97073 54.353 5.53284 54.353C3.09495 54.353 1.11865 52.3767 1.11865 49.9388C1.11865 47.501 3.09495 45.5247 5.53284 45.5247C7.97073 45.5247 9.94703 47.501 9.94703 49.9388Z" fill="#4B4B4B"/>
<path d="M82.4767 22.3985V17.837C82.4767 16.7417 81.619 15.8538 80.5612 15.8538H69.4516C68.3938 15.8538 67.5361 16.7417 67.5361 17.837V22.3985H82.4767Z" fill="#4E4E4E"/>
<path d="M75.8982 15.8538H69.4516C68.3938 15.8538 67.5361 16.7417 67.5361 17.837V22.3985H73.9827V17.837C73.9828 16.7417 74.8403 15.8538 75.8982 15.8538Z" fill="#1D1D1D"/>
<path d="M91.3078 22.2002H58.7054C56.6006 22.2002 54.8945 23.9065 54.8945 26.0112V52.3985C61.7666 52.9318 67.1953 58.6943 67.1953 65.7007C67.1953 72.7072 61.7666 78.4697 54.8945 79.0029V87.8042C54.8945 89.9089 56.6008 91.6152 58.7054 91.6152H91.3078C93.4126 91.6152 95.1187 89.9089 95.1187 87.8042V26.0112C95.1187 23.9065 93.4126 22.2002 91.3078 22.2002Z" fill="#1C1C1C"/>
<path d="M66.5511 61.6049V26.0112C66.5511 23.9065 68.2574 22.2002 70.3622 22.2002H58.7054C56.6006 22.2002 54.8945 23.9065 54.8945 26.0112V52.3985C60.3655 52.8231 64.9208 56.5625 66.5511 61.6049ZM66.5511 87.8042V69.7967C64.9208 74.8392 60.3656 78.5784 54.8945 79.0031V87.8043C54.8945 89.9091 56.6008 91.6153 58.7054 91.6153H70.3622C68.2573 91.6152 66.5511 89.9089 66.5511 87.8042Z" fill="#3A3A3A"/>
<path d="M89.3724 27.1584H60.6408C60.1118 27.1584 59.6831 27.6025 59.6831 28.1502V53.7013C61.3394 54.5107 62.8113 55.6526 64.0068 57.0558H90.3301V28.15C90.3302 27.6024 89.9014 27.1584 89.3724 27.1584Z" fill="#1A1B1C"/>
<path d="M63.8788 56.9077H66.5511V27.1584H60.6408C60.1119 27.1584 59.6831 27.6024 59.6831 28.15V53.7012C61.2802 54.4817 62.7064 55.5716 63.8788 56.9077Z" fill="#34353A"/>
<path d="M63.879 56.9077C65.9423 59.2575 67.1952 62.3353 67.1952 65.7008C67.1952 70.9684 64.1264 75.5325 59.6831 77.7002V85.7422C59.6831 85.8623 59.7067 85.9813 59.7527 86.0922C59.7986 86.2032 59.866 86.304 59.9509 86.389C60.0359 86.4739 60.1367 86.5413 60.2477 86.5872C60.3587 86.6332 60.4776 86.6568 60.5977 86.6568H89.4156C89.5357 86.6568 89.6547 86.6332 89.7657 86.5872C89.8766 86.5413 89.9775 86.4739 90.0624 86.389C90.1473 86.304 90.2147 86.2032 90.2607 86.0922C90.3066 85.9813 90.3303 85.8623 90.3302 85.7422V56.9077H63.879Z" fill="#FFE094"/>
<path d="M67.1478 66.8242C66.8027 70.9432 64.5792 74.5361 61.3381 76.7407H90.3305V66.8242H67.1478Z" fill="#EDBA39"/>
<path d="M61.3381 76.7406H66.5515V69.7969C65.6289 72.6502 63.77 75.0864 61.3381 76.7406Z" fill="#EDBA39"/>
<path d="M59.6831 77.7004V85.7423C59.6831 85.8624 59.7067 85.9814 59.7527 86.0924C59.7986 86.2033 59.866 86.3042 59.9509 86.3891C60.0359 86.474 60.1367 86.5414 60.2477 86.5874C60.3587 86.6333 60.4776 86.657 60.5977 86.6569H66.5512V76.7405H61.3379C60.8099 77.0996 60.2569 77.4204 59.6831 77.7004Z" fill="#FFE094"/>
<path d="M89.3723 26.0486H60.6405C59.5005 26.0486 58.573 26.9913 58.573 28.1501V53.2215C59.345 53.5144 60.0881 53.8786 60.7926 54.3094V28.2682H89.22V85.5471H60.7926V77.0921C60.0881 77.5228 59.345 77.887 58.573 78.18V85.7424C58.573 86.8587 59.4811 87.7668 60.5974 87.7668H89.4153C90.5316 87.7668 91.4397 86.8587 91.4397 85.7424V28.1501C91.4397 26.9913 90.5122 26.0486 89.3723 26.0486Z" fill="#5D6061"/>
<path d="M82.3458 44.8371H76.0581C76.0185 44.8371 75.9795 44.8285 75.9436 44.812C75.9077 44.7954 75.8758 44.7712 75.8502 44.7412C75.8245 44.7111 75.8057 44.6758 75.795 44.6377C75.7844 44.5997 75.7821 44.5598 75.7883 44.5207L77.7765 32.1007C77.8244 31.8011 77.421 31.6583 77.2698 31.9215L67.4315 49.0527C67.3269 49.2348 67.4584 49.4618 67.6684 49.4618H73.9561C73.9957 49.4618 74.0347 49.4704 74.0706 49.4869C74.1065 49.5035 74.1384 49.5276 74.164 49.5577C74.1897 49.5878 74.2085 49.6231 74.2192 49.6611C74.2298 49.6992 74.2321 49.7391 74.2259 49.7782L72.2379 62.1982C72.1899 62.4978 72.5933 62.6406 72.7445 62.3773L82.5827 45.2462C82.6873 45.0641 82.5558 44.8371 82.3458 44.8371Z" fill="#FEE45A"/>
<path d="M70.6681 49.0527L76.7611 38.4432L77.7763 32.101C77.8243 31.8013 77.4209 31.6585 77.2697 31.9218L67.4315 49.0527C67.3269 49.2349 67.4584 49.4619 67.6684 49.4619H70.905C70.695 49.4619 70.5636 49.2348 70.6681 49.0527ZM77.4625 49.7783C77.4687 49.7392 77.4664 49.6993 77.4557 49.6612C77.4451 49.6232 77.4263 49.5879 77.4006 49.5578C77.375 49.5277 77.3431 49.5036 77.3072 49.487C77.2713 49.4705 77.2322 49.4619 77.1927 49.4619H73.9561C73.9957 49.4619 74.0347 49.4705 74.0706 49.487C74.1065 49.5036 74.1384 49.5277 74.164 49.5578C74.1897 49.5879 74.2085 49.6232 74.2192 49.6612C74.2298 49.6993 74.2321 49.7392 74.2259 49.7783L72.2379 62.1983C72.1899 62.4979 72.5933 62.6407 72.7445 62.3774L76.4897 55.856L77.4625 49.7783Z" fill="#FED402"/>
<path d="M42.9438 73.3755L32.5651 83.7542C31.9698 84.3495 31.9698 85.3147 32.5651 85.91L33.6429 86.9878C34.2382 87.5831 35.2035 87.5831 35.7987 86.9878L46.1775 76.6091C44.923 75.7237 43.8293 74.63 42.9438 73.3755Z" fill="#7CA1B1"/>
<path d="M35.1021 83.7542L44.0806 74.7756C43.6707 74.3349 43.291 73.8671 42.9438 73.3755L32.5651 83.7542C31.9698 84.3495 31.9698 85.3147 32.5651 85.91L33.6429 86.9878C34.2382 87.5831 35.2035 87.5831 35.7987 86.9878L35.9893 86.7973L35.1019 85.9099C34.5068 85.3147 34.5068 84.3495 35.1021 83.7542Z" fill="#678D98"/>
<path d="M53.852 79.1914C61.3028 79.1914 67.3428 73.1514 67.3428 65.7007C67.3428 58.25 61.3028 52.21 53.852 52.21C46.4013 52.21 40.3613 58.25 40.3613 65.7007C40.3613 73.1514 46.4013 79.1914 53.852 79.1914Z" fill="#F9BB51"/>
<path d="M53.9935 75.072C53.9463 75.0728 53.8995 75.0756 53.8522 75.0756C48.683 75.0756 44.4773 70.8701 44.4773 65.7007C44.4773 60.5313 48.683 56.3258 53.8522 56.3258C53.8995 56.3258 53.9463 56.3286 53.9935 56.3293C55.3282 54.948 56.9538 53.8493 58.7734 53.1361C57.2487 52.5385 55.5888 52.21 53.852 52.21C46.4014 52.21 40.3613 58.25 40.3613 65.7007C40.3613 73.1513 46.4014 79.1914 53.852 79.1914C55.5888 79.1914 57.2486 78.8629 58.7734 78.2653C56.9537 77.552 55.3282 76.4533 53.9935 75.072Z" fill="#FFC942"/>
<path d="M53.8522 75.0757C59.0298 75.0757 63.2271 70.8784 63.2271 65.7008C63.2271 60.5232 59.0298 56.3259 53.8522 56.3259C48.6746 56.3259 44.4773 60.5232 44.4773 65.7008C44.4773 70.8784 48.6746 75.0757 53.8522 75.0757Z" fill="#D4F2F6"/>
<path d="M50.6613 65.7008C50.6613 61.6147 53.2899 58.133 56.9442 56.8523C55.9506 56.5036 54.9052 56.3256 53.8522 56.3259C48.6829 56.3259 44.4773 60.5314 44.4773 65.7008C44.4773 70.8702 48.6829 75.0757 53.8522 75.0757C54.9052 75.076 55.9506 74.898 56.9442 74.5494C53.2899 73.2687 50.6613 69.7869 50.6613 65.7008Z" fill="#A6E7F0"/>
<path d="M53.8525 76.1857C48.0713 76.1857 43.3679 71.4822 43.3679 65.701C43.3679 59.9197 48.0713 55.2163 53.8525 55.2163C59.6337 55.2163 64.3371 59.9197 64.3371 65.701C64.3371 71.4822 59.6337 76.1857 53.8525 76.1857ZM53.8525 57.4357C49.2951 57.4357 45.5875 61.1435 45.5875 65.7008C45.5875 70.2582 49.2952 73.9659 53.8525 73.9659C58.41 73.9659 62.1176 70.2582 62.1176 65.7008C62.1177 61.1435 58.41 57.4357 53.8525 57.4357Z" fill="#FEBD1A"/>
</svg>
