<svg width="138" height="117" viewBox="0 0 138 117" fill="none" xmlns="http://www.w3.org/2000/svg">
<path d="M72.8186 21.408H34.9203C29.6883 21.408 25.4111 25.656 25.4111 30.9119V77.2568C25.4256 82.4983 29.6738 86.7443 34.9203 86.7608H72.8186C78.0629 86.7464 82.3112 82.5004 82.3277 77.2568V30.9119C82.3277 25.656 78.0505 21.408 72.8186 21.408ZM53.722 76.791H40.7317C39.1067 76.791 37.7889 75.476 37.7889 73.8518C37.7889 72.2276 39.1046 70.9106 40.7297 70.9106H53.722C55.347 70.9106 56.6648 72.2256 56.6648 73.8498C56.6648 75.4739 55.3491 76.791 53.724 76.791H53.722ZM67.0009 62.7422H40.7317C39.1067 62.7422 37.7889 61.4272 37.7889 59.803C37.7889 58.1789 39.1046 56.8618 40.7297 56.8618H67.0009C68.626 56.8618 69.9438 58.1768 69.9438 59.801C69.9438 61.4252 68.628 62.7422 67.003 62.7422H67.0009ZM70.9068 36.2647L61.4658 46.7745C60.5048 47.8484 58.9044 48.0607 57.6959 47.2919L48.5415 41.4568L41.1401 49.1737C40.0161 50.3465 38.1539 50.3877 36.9805 49.2644C35.807 48.1411 35.7658 46.2798 36.8897 45.107L45.9616 35.6464C46.9371 34.6344 48.4879 34.4488 49.6675 35.1991L58.756 40.9909L66.5286 32.332C67.5969 31.1077 69.4571 30.982 70.68 32.0517C71.905 33.1194 72.0308 34.9786 70.9605 36.2008C70.9419 36.2214 70.9233 36.242 70.9048 36.2627L70.9068 36.2647Z" fill="#FDBD1C"/>
<path d="M98.3017 40.8302L95.002 40.8178L95.0206 35.8711C95.0247 34.96 94.2864 34.2201 93.377 34.216L83.4781 34.1809C82.5666 34.1768 81.8262 34.9147 81.8221 35.8237L81.8035 40.7704L78.5039 40.758C76.685 40.7519 75.1981 42.2276 75.1919 44.0435L75.0496 83.6176C75.0434 85.4685 76.487 86.9216 78.3368 86.9278L98.1346 86.9999C99.9865 87.0061 101.44 85.5633 101.447 83.7145L101.589 44.1404C101.595 42.2895 100.152 40.8364 98.3017 40.8302ZM88.2708 77.0714L88.3058 67.1779L81.7066 67.1531L88.3657 50.6887L88.3306 60.5822L94.9299 60.6069L88.2708 77.0714Z" fill="black"/>
<path d="M128.843 35.2835C128.843 38.442 126.282 41.0025 123.124 41.0025C119.965 41.0025 117.405 38.442 117.405 35.2835C117.405 32.1249 119.965 29.5645 123.124 29.5645C126.282 29.5645 128.843 32.1249 128.843 35.2835Z" fill="#FEBD1A"/>
<circle cx="135.121" cy="59.8292" r="2.8595" fill="black"/>
<path d="M123.945 91.3843C123.945 92.9635 122.665 94.2438 121.086 94.2438C119.507 94.2438 118.226 92.9635 118.226 91.3843C118.226 89.805 119.507 88.5248 121.086 88.5248C122.665 88.5248 123.945 89.805 123.945 91.3843Z" fill="black"/>
<circle cx="66.6159" cy="114.14" r="2.8595" fill="black"/>
<circle cx="11.6044" cy="91.5201" r="2.8595" fill="black"/>
<circle cx="17.1481" cy="21.5475" r="2.8595" fill="black"/>
<circle cx="64.6012" cy="3.82874" r="2.8595" fill="black"/>
<circle cx="93.5768" cy="9.54773" r="2.8595" fill="black"/>
<path d="M10.6503 54.3466C10.6503 56.9787 8.51659 59.1125 5.88449 59.1125C3.25239 59.1125 1.11865 56.9787 1.11865 54.3466C1.11865 51.7145 3.25239 49.5808 5.88449 49.5808C8.51659 49.5808 10.6503 51.7145 10.6503 54.3466Z" fill="#4B4B4B"/>
</svg>
