<svg width="128" height="108" viewBox="0 0 128 108" fill="none" xmlns="http://www.w3.org/2000/svg">
<path d="M119.419 32.2824C119.419 35.2078 117.047 37.5794 114.122 37.5794C111.197 37.5794 108.825 35.2078 108.825 32.2824C108.825 29.3569 111.197 26.9854 114.122 26.9854C117.047 26.9854 119.419 29.3569 119.419 32.2824Z" fill="#FEBD1A"/>
<circle cx="125.233" cy="55.0169" r="2.64851" fill="black"/>
<path d="M114.883 84.2437C114.883 85.7065 113.697 86.8922 112.234 86.8922C110.771 86.8922 109.586 85.7065 109.586 84.2437C109.586 82.781 110.771 81.5952 112.234 81.5952C113.697 81.5952 114.883 82.781 114.883 84.2437Z" fill="black"/>
<circle cx="61.7828" cy="105.321" r="2.64851" fill="black"/>
<circle cx="10.8306" cy="84.3697" r="2.64851" fill="black"/>
<circle cx="15.9657" cy="19.5599" r="2.64851" fill="black"/>
<circle cx="59.9176" cy="3.14851" r="2.64851" fill="black"/>
<circle cx="86.7542" cy="8.44563" r="2.64851" fill="black"/>
<path d="M9.94703 49.9388C9.94703 52.3767 7.97073 54.353 5.53284 54.353C3.09495 54.353 1.11865 52.3767 1.11865 49.9388C1.11865 47.501 3.09495 45.5247 5.53284 45.5247C7.97073 45.5247 9.94703 47.501 9.94703 49.9388Z" fill="#4B4B4B"/>
<path d="M70.9799 74.8431C71.3751 71.8501 73.5184 69.0482 73.5184 66.0292C73.5184 62.263 76.4203 59.1989 79.9871 59.1989C82.1307 59.1989 83.8684 57.4612 83.8684 55.3177V33.1683C83.8684 27.9287 79.6209 23.6812 74.3814 23.6812C70.4626 23.6812 66.6487 22.3398 63.5139 19.8563C60.2793 17.2949 55.7077 17.2949 52.4731 19.8563C49.3381 22.3395 45.5247 23.6816 41.6057 23.6812C36.3661 23.6812 32.1187 27.9287 32.1187 33.1683V61.6701C32.1186 65.9163 33.16 70.0902 35.1413 73.7853C37.1226 77.4803 39.9764 80.5707 43.4247 82.7553L51.0697 87.5983C55.2971 90.2763 60.6899 90.2762 64.9172 87.598C68.6616 85.2258 70.9309 81.1017 70.9309 76.669V75.5917C70.9309 75.3375 70.9476 75.0876 70.9799 74.8431Z" fill="#FEBD1A"/>
<path d="M57.994 71.7344C47.4316 71.7344 38.8691 63.6756 38.8691 53.7345C38.8691 43.7934 47.4316 35.7346 57.994 35.7346C68.5564 35.7346 77.1189 43.7934 77.1189 53.7345C77.1189 63.6756 68.5564 71.7344 57.994 71.7344Z" fill="white"/>
<path d="M49.0556 82.8626C45.512 80.7038 42.5793 77.6501 40.5432 73.9987C38.5071 70.3474 37.4369 66.2229 37.4368 62.0268V27.1439C37.4368 25.6754 36.2463 24.4849 34.7777 24.4849C33.3092 24.4849 32.1187 25.6754 32.1187 27.1439V62.0268C32.1186 66.2231 33.1888 70.3478 35.2249 73.9994C37.261 77.651 40.1938 80.705 43.7375 82.864L57.9896 91.546C58.4317 91.8153 58.9871 91.8153 59.4292 91.546C60.3141 91.0069 60.3141 89.7221 59.4292 89.183L49.0556 82.8626Z" fill="black"/>
<path d="M65.8254 48.959C66.9324 50.0598 66.9324 51.8511 65.8254 52.9519L59.8248 58.9189C57.6283 61.103 54.0802 61.103 51.8838 58.9189L49.8761 56.9224C48.7691 55.8217 48.7691 54.0303 49.8761 52.9296C50.9743 51.8375 52.754 51.8431 53.8522 52.9351C54.9566 54.0334 56.7463 54.039 57.8507 52.9407L61.8549 48.959C62.9531 47.8669 64.7272 47.8669 65.8254 48.959ZM92.4562 91.9846H76.4845C75.7785 91.9846 75.1014 91.7057 74.6022 91.2093C74.1029 90.7129 73.8225 90.0396 73.8225 89.3376V76.1024C73.8225 75.4003 74.1029 74.727 74.6022 74.2306C75.1014 73.7342 75.7785 73.4553 76.4845 73.4553H92.4562C93.1622 73.4553 93.8393 73.7342 94.3385 74.2306C94.8377 74.727 95.1182 75.4003 95.1182 76.1024V89.3376C95.1182 90.0396 94.8377 90.7129 94.3385 91.2093C93.8393 91.7057 93.1622 91.9846 92.4562 91.9846Z" fill="#FEBD1A"/>
<path d="M75.9941 89.0917V74.6275C75.9941 73.8602 76.3497 73.1244 76.9826 72.5819C77.6156 72.0394 78.474 71.7346 79.3691 71.7346H75.9941C75.099 71.7346 74.2406 72.0394 73.6076 72.5819C72.9747 73.1244 72.6191 73.8602 72.6191 74.6275V89.0917C72.6191 89.8589 72.9747 90.5947 73.6076 91.1372C74.2406 91.6797 75.099 91.9845 75.9941 91.9845H79.3691C78.474 91.9845 77.6156 91.6797 76.9826 91.1372C76.3497 90.5947 75.9941 89.8589 75.9941 89.0917Z" fill="#DC9600"/>
<path d="M78.2441 71.7346C78.8655 71.7346 79.3691 71.2309 79.3691 70.6096V64.7033C79.3691 64.3304 79.4877 63.9727 79.6986 63.709C79.9096 63.4453 80.1958 63.2971 80.4941 63.2971H87.2441C87.5425 63.2971 87.8286 63.4453 88.0396 63.709C88.2506 63.9727 88.3691 64.3304 88.3691 64.7033V70.6096C88.3691 71.2309 88.8728 71.7346 89.4941 71.7346C90.1154 71.7346 90.6191 71.2309 90.6191 70.6096V64.7033C90.6191 63.5845 90.2635 62.5114 89.6306 61.7203C88.9976 60.9291 88.1392 60.4846 87.2441 60.4846H80.4941C79.599 60.4846 78.7406 60.9291 78.1077 61.7203C77.4747 62.5114 77.1191 63.5845 77.1191 64.7033V70.6096C77.1191 71.2309 77.6228 71.7346 78.2441 71.7346Z" fill="black"/>
<path d="M88.3691 78.4846C88.3691 77.8879 88.0135 77.3156 87.3806 76.8936C86.7477 76.4717 85.8892 76.2346 84.9941 76.2346C84.099 76.2346 83.2406 76.4717 82.6076 76.8936C81.9747 77.3156 81.6191 77.8879 81.6191 78.4846C81.6191 78.9115 81.7998 79.3087 82.1119 79.6469C82.6992 80.2834 83.3066 80.9935 83.3066 81.8596C83.3066 82.158 83.4844 82.4441 83.8009 82.6551C84.1174 82.8661 84.5466 82.9846 84.9941 82.9846C85.4417 82.9846 85.8709 82.8661 86.1874 82.6551C86.5038 82.4441 86.6816 82.158 86.6816 81.8596C86.6816 80.9935 87.289 80.2834 87.8763 79.6469C88.1884 79.3087 88.3691 78.9115 88.3691 78.4846Z" fill="#BE7800"/>
</svg>
