<svg width="128" height="108" viewBox="0 0 128 108" fill="none" xmlns="http://www.w3.org/2000/svg">
<path d="M119.419 32.2824C119.419 35.2078 117.047 37.5794 114.122 37.5794C111.196 37.5794 108.825 35.2078 108.825 32.2824C108.825 29.3569 111.196 26.9854 114.122 26.9854C117.047 26.9854 119.419 29.3569 119.419 32.2824Z" fill="#FEBD1A"/>
<circle cx="125.233" cy="55.0169" r="2.64851" fill="black"/>
<path d="M114.883 84.2437C114.883 85.7065 113.697 86.8922 112.234 86.8922C110.771 86.8922 109.586 85.7065 109.586 84.2437C109.586 82.781 110.771 81.5952 112.234 81.5952C113.697 81.5952 114.883 82.781 114.883 84.2437Z" fill="black"/>
<circle cx="61.7828" cy="105.321" r="2.64851" fill="black"/>
<circle cx="10.8306" cy="84.3697" r="2.64851" fill="black"/>
<circle cx="15.9657" cy="19.5599" r="2.64851" fill="black"/>
<circle cx="59.9176" cy="3.14851" r="2.64851" fill="black"/>
<circle cx="86.7542" cy="8.44563" r="2.64851" fill="black"/>
<path d="M9.94703 49.9388C9.94703 52.3767 7.97073 54.353 5.53284 54.353C3.09495 54.353 1.11865 52.3767 1.11865 49.9388C1.11865 47.501 3.09495 45.5247 5.53284 45.5247C7.97073 45.5247 9.94703 47.501 9.94703 49.9388Z" fill="#4B4B4B"/>
<path d="M57.3887 28.9551C55.6352 27.6403 53.2765 26.8055 50.8275 26.8055C44.1697 26.8055 38.8964 32.6729 39.8532 39.478C39.7549 39.4986 34.8333 39.1358 30.7781 43.1894C28.4859 45.4832 27.0666 48.6513 27.0666 52.1505C27.0666 59.1489 32.7407 64.823 39.7391 64.823H87.261C94.2594 64.823 99.9335 59.1489 99.9335 52.1505C99.9335 45.1521 94.2594 39.478 87.261 39.478H86.9442C88.9432 29.6172 81.4015 20.4692 71.4203 20.4692C65.3265 20.4692 60.0373 23.9114 57.3887 28.9551Z" fill="#FDBD1C"/>
<path d="M63.5 44.2302C52.1264 44.2302 42.9072 53.4495 42.9072 64.823C42.9072 76.1966 52.1264 85.4158 63.5 85.4158C74.8735 85.4158 84.0928 76.1966 84.0928 64.823C84.0928 53.4495 74.8735 44.2302 63.5 44.2302Z" fill="black"/>
<path d="M52.2992 58.1018L59.0204 64.823L52.2992 71.5441L56.779 76.0239L63.5001 69.3027L70.2213 76.0239L74.701 71.5441L67.9799 64.823L74.701 58.1018L70.2213 53.6221L63.5001 60.3432L56.779 53.6221L52.2992 58.1018Z" fill="white"/>
<path d="M63.4999 87C75.7288 87 85.6768 77.0521 85.6768 64.8231C85.6768 52.5942 75.7288 42.6462 63.4999 42.6462C51.2709 42.6462 41.323 52.5942 41.323 64.8231C41.323 77.0521 51.2709 87 63.4999 87ZM63.4999 45.8144C73.9816 45.8144 82.5086 54.3414 82.5086 64.8231C82.5086 75.3049 73.9816 83.8319 63.4999 83.8319C53.0181 83.8319 44.4911 75.3049 44.4911 64.8231C44.4911 54.3414 53.0181 45.8144 63.4999 45.8144Z" fill="black"/>
</svg>
