<svg width="137" height="116" viewBox="0 0 137 116" fill="none" xmlns="http://www.w3.org/2000/svg">
<path d="M127.451 34.6123C127.451 37.7364 124.919 40.269 121.795 40.269C118.671 40.269 116.138 37.7364 116.138 34.6123C116.138 31.4882 118.671 28.9556 121.795 28.9556C124.919 28.9556 127.451 31.4882 127.451 34.6123Z" fill="#FEBD1A"/>
<circle cx="133.661" cy="58.8906" r="2.82835" fill="black"/>
<path d="M122.607 90.1019C122.607 91.664 121.341 92.9303 119.779 92.9303C118.217 92.9303 116.951 91.664 116.951 90.1019C116.951 88.5399 118.217 87.2736 119.779 87.2736C121.341 87.2736 122.607 88.5399 122.607 90.1019Z" fill="black"/>
<circle cx="65.9018" cy="112.61" r="2.82835" fill="black"/>
<circle cx="11.4902" cy="90.2363" r="2.82835" fill="black"/>
<circle cx="16.9736" cy="21.0261" r="2.82835" fill="black"/>
<circle cx="63.9101" cy="3.50022" r="2.82835" fill="black"/>
<circle cx="92.5693" cy="9.15696" r="2.82835" fill="black"/>
<path d="M10.5465 53.4678C10.5465 56.0712 8.43599 58.1817 5.83257 58.1817C3.22914 58.1817 1.11865 56.0712 1.11865 53.4678C1.11865 50.8644 3.22914 48.7539 5.83257 48.7539C8.43599 48.7539 10.5465 50.8644 10.5465 53.4678Z" fill="#4B4B4B"/>
<path d="M101.819 34.4201H83.0868C81.0262 34.4256 79.1747 33.1629 78.4291 31.2425L77.0838 27.7899C76.7344 26.8847 75.8623 26.2905 74.8911 26.296H59.6635C58.6924 26.2877 57.8203 26.8847 57.4709 27.7899L56.1145 31.2425C55.369 33.1656 53.5175 34.4284 51.4568 34.4201H32.7243C30.9718 34.4256 29.5522 35.8452 29.5467 37.5977V42.3847C29.5467 43.1165 28.9552 43.708 28.2234 43.708C28.1106 43.7108 28.0005 43.6943 27.896 43.6557V47.1607C28.1821 47.257 28.4517 47.3946 28.7021 47.5624C29.5109 48.1236 29.9924 49.0452 29.9951 50.0302V57.505C29.9951 57.5931 30.0254 57.6784 30.0804 57.7499L32.0392 59.9618C32.2291 60.1847 32.3996 60.1736 32.5895 59.9618L34.5373 57.7499C34.5978 57.6839 34.6336 57.5958 34.6336 57.505V50.0302C34.6336 49.0452 35.1178 48.1264 35.9266 47.5624C36.7492 46.9874 37.8029 46.8526 38.7438 47.202C42.6449 48.6436 45.2475 52.3494 45.2778 56.5091V63.497C45.2668 66.7186 43.6904 69.7366 41.052 71.5882C39.4673 72.6804 38.5127 74.4714 38.4907 76.3944V81.1484H42.0919C42.0699 81.0631 42.0589 80.9723 42.0589 80.8843C42.0589 80.1525 42.6504 79.561 43.3822 79.561H101.822C103.577 79.561 104.997 78.1387 105 76.3834V37.5977C105 35.8425 103.577 34.4229 101.822 34.4201H101.819ZM46.3039 43.6227H44.546V45.3917C44.546 46.1235 43.9545 46.715 43.2227 46.715C42.4908 46.715 41.8993 46.1235 41.8993 45.3917V43.6227H40.1304C39.3986 43.6227 38.8071 43.0312 38.8071 42.2994C38.8071 41.5676 39.3986 40.9761 40.1304 40.9761H41.8993V39.2071C41.8993 38.4753 42.4908 37.8838 43.2227 37.8838C43.9545 37.8838 44.546 38.4753 44.546 39.2071V40.9761H46.3039C47.0357 40.9761 47.6272 41.5676 47.6272 42.2994C47.6272 43.0312 47.0357 43.6227 46.3039 43.6227ZM64.7504 65.8685L62.9071 67.6678C62.6623 67.9099 62.3294 68.0419 61.9855 68.0392C61.2592 68.0502 60.6649 67.4697 60.6539 66.7434C60.6484 66.3775 60.797 66.0253 61.0639 65.7722L62.9071 63.973C63.4299 63.464 64.2662 63.475 64.7752 64.0005C65.2841 64.5232 65.2731 65.3596 64.7477 65.8685H64.7504ZM73.411 46.5665L64.9402 53.5021L71.675 56.6357C72.3381 56.9493 72.6214 57.7389 72.3078 58.4019C72.239 58.545 72.1482 58.6743 72.0354 58.7843L67.2072 63.486C66.9596 63.7309 66.6239 63.8657 66.2745 63.8684C65.9196 63.8684 65.5785 63.7226 65.3309 63.4668C64.8219 62.9413 64.8329 62.105 65.3529 61.5932L68.8166 58.2258L61.914 55.018C61.2509 54.7099 60.9676 53.923 61.2757 53.26C61.361 53.0784 61.4848 52.9216 61.6389 52.7951L71.7411 44.5251C72.3051 44.0629 73.1387 44.1454 73.5981 44.7094C74.0575 45.2734 73.9778 46.107 73.4138 46.5665H73.411ZM95.489 43.6227H89.3154C88.5836 43.6227 87.9921 43.0312 87.9921 42.2994C87.9921 41.5676 88.5836 40.9761 89.3154 40.9761H95.489C96.2208 40.9761 96.8123 41.5676 96.8123 42.2994C96.8123 43.0312 96.2208 43.6227 95.489 43.6227Z" fill="#FDBD1C"/>
<path d="M42.6284 56.5091V63.497C42.6174 65.8602 41.4619 68.0722 39.5251 69.4257C37.2361 71.0104 35.8605 73.6102 35.8413 76.3944V92.5849C35.8413 94.5327 34.2621 96.1119 32.3143 96.1119C30.3665 96.1119 28.7901 94.5327 28.7873 92.5849V90.4473C28.7873 89.7155 28.1958 89.124 27.464 89.124C27.431 89.124 27.4008 89.124 27.3677 89.135V85.8941C27.398 85.9024 27.431 85.9051 27.464 85.9051C28.1958 85.9051 28.7873 85.3136 28.7873 84.5818V76.3971C28.7653 73.613 27.3925 71.0131 25.1035 69.4285C23.1667 68.0721 22.0112 65.863 22.0002 63.4997V56.5118C22.025 53.4553 23.9398 50.7372 26.8065 49.6835C26.9331 49.6312 27.0789 49.6532 27.1889 49.7357C27.2935 49.799 27.354 49.9118 27.3485 50.0329V57.5077C27.3485 58.2395 27.6153 58.9493 28.0995 59.4996L30.0474 61.7115C31.2276 62.9633 33.2002 63.021 34.4519 61.838C34.496 61.7968 34.5372 61.7555 34.5785 61.7115L36.5263 59.4996C37.0105 58.9493 37.2801 58.2423 37.2774 57.5077V50.0329C37.2719 49.9118 37.3324 49.799 37.4369 49.7357C37.547 49.6505 37.6901 49.6312 37.8194 49.6835C40.6861 50.7372 42.6009 53.458 42.6256 56.5118L42.6284 56.5091Z" fill="black"/>
<path d="M27.3706 92.9866V89.1323M27.3706 85.8914V82.4387" stroke="black" stroke-width="1.28" stroke-miterlimit="51.2"/>
<path d="M95.3406 29.1793V34.2524H87.929V29.1793C87.9317 29.1325 87.9675 29.0967 88.0142 29.094H95.247C95.2965 29.094 95.3378 29.1298 95.3433 29.1793H95.3406Z" fill="black"/>
<path d="M46.6313 29.1793V34.2524H39.2197V29.1793C39.2225 29.1325 39.2582 29.0967 39.305 29.094H46.5378C46.5873 29.094 46.6286 29.1298 46.6341 29.1793H46.6313Z" fill="black"/>
<path d="M33.8155 75.2521L34.1917 75.156V75.1514L45.9877 72.123L47.9119 79.3509L35.7245 82.4815C35.7244 82.4815 35.7242 82.4816 35.7241 82.4816C34.7785 82.7229 33.8207 82.1612 33.5757 81.2388C33.5756 81.2387 33.5756 81.2385 33.5755 81.2383L32.556 77.3628C32.556 77.3627 32.5559 77.3626 32.5559 77.3624C32.3151 76.4422 32.8733 75.4927 33.8155 75.2521ZM44.8734 77.3981L45.3596 77.2731L45.2327 76.7874L44.9329 75.6403L44.807 75.1585L44.3247 75.2825L41.4772 76.0143L40.9909 76.1393L41.1179 76.625L41.4176 77.7721L41.5435 78.2539L42.0258 78.13L44.8734 77.3981ZM56.396 66.2379L56.3966 66.2403L59.8844 79.4881C59.8845 79.4885 59.8846 79.489 59.8847 79.4894C59.9274 79.6594 59.8252 79.8342 59.6484 79.8782L59.6461 79.8788L57.9642 80.3064L57.964 80.3065C57.5193 80.4198 57.0505 80.4346 56.5899 80.3523C56.5897 80.3523 56.5895 80.3523 56.5893 80.3522L50.1378 79.1799L48.0167 71.2128L53.0715 67.0671C53.0715 67.067 53.0716 67.067 53.0716 67.067C53.4312 66.7723 53.8524 66.5587 54.3071 66.441C54.3073 66.4409 54.3075 66.4409 54.3077 66.4408L55.9906 66.0099C55.9908 66.0099 55.9911 66.0098 55.9913 66.0097C56.0808 65.9874 56.1711 66.0003 56.2464 66.044C56.3236 66.0887 56.3758 66.1596 56.396 66.2379ZM63.8604 71.2995L66.9174 70.5158L66.9644 70.6954L63.9073 71.479L63.8604 71.2995ZM65.3294 77.7679L65.3712 77.5902L67.3979 78.0538L67.3561 78.2316L65.3294 77.7679ZM61.9994 65.1158L63.5358 63.7397L63.6632 63.8785L62.1268 65.2547L61.9994 65.1158Z" fill="black" stroke="white"/>
</svg>
