<svg width="29" height="29" viewBox="0 0 29 29" fill="none" xmlns="http://www.w3.org/2000/svg">
<g clip-path="url(#clip0_125_1845)">
<path d="M15.9367 20.6222C15.9307 19.6805 15.3391 19.089 14.4005 19.086C13.6851 19.0829 12.9698 19.0799 12.2545 19.089C12.0583 19.092 11.9557 19.0316 11.9044 18.8475C11.7987 18.4883 11.6539 18.1382 11.5694 17.776C11.183 16.0798 11.1528 14.3654 11.3279 12.6451C11.4154 11.7909 11.5784 10.9458 11.9074 10.1399C11.9738 9.97694 12.0583 9.91054 12.2454 9.91054C12.9517 9.92262 13.658 9.91658 14.3673 9.91356C15.3542 9.91054 15.9337 9.33104 15.9367 8.33805C15.9398 7.77364 15.9367 7.21526 15.9398 6.65086C15.9398 6.07136 15.9458 5.49186 15.9398 4.91236C15.9277 3.97671 15.3361 3.38513 14.4005 3.3791C13.6821 3.37306 12.9698 3.39117 12.2515 3.37306C11.5875 3.35495 11.02 3.5783 10.522 4.00387C9.71315 4.69806 9.18798 5.59146 8.75637 6.5422C7.85694 8.50405 7.39515 10.5836 7.21104 12.7296C6.96053 15.6301 7.29555 18.4582 8.24629 21.2078C8.67488 22.4452 9.22721 23.6193 10.1146 24.6093C10.7243 25.2914 11.4486 25.6898 12.4024 25.6355C13.0543 25.5993 13.7153 25.6325 14.3703 25.6295C15.3421 25.6234 15.9367 25.0349 15.9398 24.0721C15.9428 22.9221 15.9398 21.7722 15.9367 20.6222ZM17.7658 17.6402L19.0697 18.5638C19.9178 17.3656 20.3615 15.9561 20.3645 14.4862C20.3645 12.9348 19.8725 11.4649 18.9429 10.2335L17.6662 11.1963C18.3845 12.1501 18.7678 13.2879 18.7678 14.4892C18.7678 15.624 18.4207 16.7136 17.7658 17.6402ZM24.3485 14.5405C24.3485 11.969 23.5336 9.53025 21.9883 7.48389L20.7116 8.4467C22.0456 10.2154 22.7489 12.3251 22.7519 14.5435C22.7519 16.6502 22.112 18.6725 20.8987 20.3868L22.2026 21.3104C23.6061 19.3214 24.3455 16.9823 24.3485 14.5405Z" fill="#FEBD1A"/>
</g>
<defs>
<clipPath id="clip0_125_1845">
<rect width="20.5123" height="20.5123" fill="white" transform="translate(14.5044) rotate(45)"/>
</clipPath>
</defs>
</svg>
