<svg width="20" height="24" viewBox="0 0 20 24" fill="none" xmlns="http://www.w3.org/2000/svg">
<path d="M17.798 19.228C18.162 19.228 18.5 19.3753 18.812 19.67C19.124 19.982 19.28 20.3373 19.28 20.736C19.28 21.1347 19.098 21.5073 18.734 21.854C18.3873 22.218 17.9367 22.5387 17.382 22.816C16.8273 23.0933 16.2467 23.31 15.64 23.466C15.0507 23.622 14.5133 23.7 14.028 23.7C12.9533 23.7 12.0953 23.596 11.454 23.388C10.8127 23.1973 10.284 22.972 9.868 22.712C9.452 22.4693 9.062 22.244 8.698 22.036C8.334 21.8453 7.892 21.75 7.372 21.75C7.04267 21.75 6.774 21.802 6.566 21.906C6.37533 22.0273 6.15867 22.14 5.916 22.244C5.69067 22.3653 5.37 22.426 4.954 22.426C4.52067 22.426 4.15667 22.2613 3.862 21.932C3.56733 21.6027 3.42 21.2473 3.42 20.866C3.42 20.19 3.72333 19.7393 4.33 19.514L9.712 17.512L12.052 18.084L7.008 19.956L8.49 19.098C9.09667 19.098 9.62533 19.1847 10.076 19.358C10.544 19.5487 10.986 19.7567 11.402 19.982C11.818 20.2073 12.2427 20.4067 12.676 20.58C13.1267 20.7707 13.638 20.866 14.21 20.866C14.678 20.866 15.068 20.788 15.38 20.632C15.7093 20.476 15.9953 20.3027 16.238 20.112C16.5327 19.8867 16.7927 19.6787 17.018 19.488C17.2607 19.3147 17.5207 19.228 17.798 19.228ZM17.694 9.4C17.694 10.7 17.4773 11.9133 17.044 13.04C16.6107 14.1667 15.9953 15.1633 15.198 16.03C14.418 16.8793 13.482 17.5467 12.39 18.032C11.3153 18.5173 10.1367 18.76 8.854 18.76C7.57133 18.76 6.39267 18.5173 5.318 18.032C4.24333 17.5467 3.30733 16.8793 2.51 16.03C1.73 15.1633 1.12333 14.1667 0.69 13.04C0.256667 11.9133 0.0400001 10.7 0.0400001 9.4C0.0400001 8.1 0.256667 6.88667 0.69 5.76C1.12333 4.63333 1.73 3.64533 2.51 2.796C3.30733 1.92933 4.24333 1.25333 5.318 0.767999C6.39267 0.282666 7.57133 0.039999 8.854 0.039999C10.1367 0.039999 11.3153 0.282666 12.39 0.767999C13.482 1.25333 14.418 1.92933 15.198 2.796C15.9953 3.64533 16.6107 4.63333 17.044 5.76C17.4773 6.88667 17.694 8.1 17.694 9.4ZM14.314 9.4C14.314 8.23867 14.08 7.19 13.612 6.254C13.144 5.30067 12.5027 4.54667 11.688 3.992C10.8733 3.43733 9.92867 3.16 8.854 3.16C7.77933 3.16 6.83467 3.43733 6.02 3.992C5.20533 4.54667 4.564 5.292 4.096 6.228C3.64533 7.164 3.42 8.22133 3.42 9.4C3.42 10.5613 3.64533 11.6187 4.096 12.572C4.564 13.508 5.20533 14.2533 6.02 14.808C6.83467 15.3627 7.77933 15.64 8.854 15.64C9.92867 15.64 10.8733 15.3627 11.688 14.808C12.5027 14.2533 13.144 13.508 13.612 12.572C14.08 11.6187 14.314 10.5613 14.314 9.4Z" fill="#ECBC27"/>
</svg>
