<svg width="101" height="101" viewBox="0 0 101 101" fill="none" xmlns="http://www.w3.org/2000/svg">
<circle cx="50.5" cy="50.5" r="50" fill="#FFDC2B"/>
<g clip-path="url(#clip0_125_1723)">
<path d="M50.5337 21C34.2478 21 21 34.2491 21 50.5337C21 66.8183 34.2478 80.0674 50.5337 80.0674C66.8195 80.0674 80.0674 66.8183 80.0674 50.5337C80.0674 34.2491 66.8195 21 50.5337 21ZM50.5337 77.6063C35.6058 77.6063 23.4611 65.4616 23.4611 50.5337C23.4611 35.6058 35.6058 23.4611 50.5337 23.4611C65.4616 23.4611 77.6063 35.6058 77.6063 50.5337C77.6063 65.4616 65.4616 77.6063 50.5337 77.6063Z" fill="white"/>
<path d="M62.2745 49.4989L45.0465 38.4238C44.6692 38.1775 44.1813 38.1642 43.7919 38.3781C43.5976 38.4838 43.4355 38.6399 43.3225 38.8301C43.2096 39.0202 43.15 39.2373 43.1501 39.4585V61.6088C43.1501 62.0594 43.3953 62.4728 43.7919 62.6892C43.9726 62.7876 44.175 62.8392 44.3808 62.8394C44.6115 62.8394 44.8446 62.7744 45.0465 62.6435L62.2745 51.5683C62.6254 51.3425 62.8393 50.9518 62.8393 50.5336C62.8393 50.1154 62.6254 49.7249 62.2745 49.4989ZM45.6112 59.3543V41.713L59.3326 50.5336L45.6112 59.3543Z" fill="white"/>
</g>
<defs>
<clipPath id="clip0_125_1723">
<rect width="59.0674" height="59.0674" fill="white" transform="translate(21.2256 21.2253)"/>
</clipPath>
</defs>
</svg>
